<?xml version="1.0" standalone="no"?>
<!DOCTYPE svg PUBLIC "-//W3C//DTD SVG 20010904//EN"
 "http://www.w3.org/TR/2001/REC-SVG-20010904/DTD/svg10.dtd">
<svg version="1.0" xmlns="http://www.w3.org/2000/svg"
 width="512.000000pt" height="512.000000pt" viewBox="0 0 512.000000 512.000000"
 preserveAspectRatio="xMidYMid meet">
<metadata>
Created by potrace 1.14, written by Peter Selinger 2001-2017
</metadata>
<g transform="translate(0.000000,512.000000) scale(0.100000,-0.100000)"
fill="#000000" stroke="none">
<path d="M2655 5103 c-49 -7 -97 -17 -105 -20 -8 -3 -17 -7 -20 -8 -39 -12
-96 -29 -101 -29 -8 -1 -103 -50 -109 -56 -3 -3 -18 -12 -33 -20 -16 -7 -55
-41 -89 -74 -86 -86 -98 -100 -98 -113 0 -17 -25 -29 -122 -58 -45 -14 -92
-30 -103 -35 -11 -5 -47 -20 -80 -34 -33 -13 -95 -42 -137 -65 -43 -22 -78
-38 -78 -36 0 2 -11 -6 -24 -18 -13 -12 -41 -31 -63 -42 -21 -11 -43 -24 -49
-30 -6 -5 -23 -19 -38 -30 -16 -11 -34 -26 -41 -32 -8 -7 -16 -13 -18 -13 -21
0 -243 -221 -307 -306 -25 -32 -50 -65 -57 -72 -6 -6 -15 -21 -18 -32 -3 -11
-11 -20 -16 -20 -6 0 -7 -4 -4 -10 3 -5 2 -10 -3 -10 -14 0 -108 -195 -136
-284 -27 -82 -34 -108 -42 -166 -2 -18 -6 -35 -7 -36 -1 -1 -27 -4 -58 -7 -83
-9 -165 -43 -205 -84 -11 -13 -24 -20 -27 -16 -4 3 -7 2 -7 -4 0 -5 -14 -25
-31 -44 -48 -53 -110 -187 -124 -266 -15 -89 -21 -157 -19 -205 5 -119 8 -158
13 -158 3 0 7 -16 8 -36 1 -30 30 -136 50 -184 3 -8 7 -17 8 -20 7 -28 84
-167 107 -194 10 -11 18 -26 18 -33 0 -8 5 -11 10 -8 6 3 10 1 10 -5 0 -7 25
-36 54 -65 30 -29 52 -55 49 -58 -3 -4 -6 -35 -8 -70 -1 -35 -5 -69 -9 -75 -4
-7 -3 -12 3 -12 6 0 7 -8 4 -17 -9 -22 -8 -64 0 -87 5 -11 3 -15 -5 -10 -7 5
-8 3 -3 -6 4 -6 9 -38 11 -69 3 -71 18 -173 30 -213 3 -9 7 -27 9 -40 12 -63
18 -84 27 -95 5 -7 7 -17 3 -23 -3 -5 -1 -10 4 -10 6 0 11 -3 10 -7 -1 -5 2
-18 6 -30 9 -27 8 -38 -2 -39 -5 0 -21 -3 -38 -7 -16 -4 -45 -9 -62 -12 -60
-9 -87 -14 -163 -30 -70 -14 -115 -22 -165 -29 -11 -1 -33 -6 -50 -9 -16 -4
-43 -9 -60 -12 -16 -2 -37 -6 -45 -8 -8 -2 -36 -7 -62 -12 l-48 -7 0 -570 c0
-492 2 -569 14 -565 8 3 34 11 58 17 24 6 50 14 58 17 18 8 17 7 60 17 19 5
40 11 45 15 6 3 17 6 25 7 26 1 74 16 88 27 6 5 12 7 12 3 0 -3 12 -1 28 5 15
6 41 13 57 16 17 3 32 9 33 14 2 5 7 7 12 4 4 -3 36 4 71 15 34 11 64 18 66
16 3 -2 16 2 30 9 15 8 30 12 35 9 4 -3 8 0 8 6 0 6 5 8 10 5 6 -4 17 -1 25 5
8 7 15 9 15 5 0 -4 6 -2 14 4 8 6 18 11 22 10 5 -1 12 0 17 1 4 1 12 4 17 5 6
1 11 3 13 4 1 2 13 4 27 7 14 2 32 7 40 11 13 5 29 9 65 17 6 1 15 4 20 8 6 3
26 9 45 14 49 11 49 11 55 14 3 1 10 4 15 5 6 1 11 3 13 5 1 1 9 3 17 5 8 1
34 8 58 14 46 13 55 10 94 -33 10 -10 18 -16 18 -12 0 4 9 -1 20 -11 37 -35
250 -134 250 -116 0 3 6 1 13 -5 13 -11 44 -19 107 -28 52 -7 78 -12 100 -19
13 -4 20 -2 20 7 0 9 3 9 8 2 9 -13 340 -13 361 0 11 7 12 6 6 -5 -7 -12 -6
-12 7 -1 11 9 18 10 23 2 3 -6 11 -7 17 -4 6 4 38 9 72 11 99 8 131 11 131 13
0 5 228 2 285 -4 36 -4 97 -9 135 -11 39 -2 70 -5 70 -6 0 0 15 -2 33 -3 17
-1 32 3 32 9 0 7 3 7 8 0 7 -11 52 -15 152 -14 113 1 145 4 152 14 5 6 8 6 8
-1 0 -8 11 -9 35 -4 19 4 35 6 35 3 0 -3 6 0 13 6 8 6 16 8 19 5 5 -4 98 17
173 40 6 2 22 6 38 11 15 4 27 11 27 17 0 5 4 7 9 3 5 -3 12 -1 16 5 3 5 15
10 26 10 10 0 19 4 19 9 0 5 10 13 22 17 12 3 28 12 35 18 30 26 43 36 48 36
3 0 18 11 33 25 20 19 33 24 52 19 14 -3 32 -7 40 -9 18 -3 106 -30 170 -52
25 -8 54 -14 65 -14 10 0 24 -4 30 -9 5 -4 24 -10 40 -13 17 -3 42 -10 56 -15
15 -6 30 -8 33 -5 3 4 6 1 6 -6 0 -7 6 -11 13 -8 6 2 27 -2 46 -9 18 -8 37
-12 41 -9 5 3 12 0 15 -6 4 -5 13 -8 21 -5 8 3 14 1 14 -4 0 -6 9 -10 21 -10
11 0 28 -4 38 -9 10 -6 29 -11 44 -13 14 -2 29 -7 33 -11 4 -4 17 -7 29 -7 12
0 25 -3 29 -7 4 -4 13 -8 19 -8 7 0 28 -5 47 -12 19 -6 61 -18 93 -27 31 -9
81 -23 110 -32 28 -8 59 -16 67 -18 8 -2 22 -6 30 -9 8 -3 25 -7 38 -10 l22
-5 0 569 c0 313 -3 569 -7 570 -37 3 -82 10 -103 15 -14 4 -34 8 -45 9 -11 1
-36 6 -55 10 -38 9 -46 11 -105 19 -22 3 -60 10 -84 16 -24 6 -46 8 -49 5 -3
-2 -10 -1 -16 4 -6 4 -31 11 -56 15 -124 17 -192 33 -187 44 27 59 53 135 61
182 3 14 5 25 6 25 3 0 9 39 12 68 1 15 5 27 8 27 3 0 6 10 6 23 9 160 14 215
20 231 6 15 4 17 -6 11 -8 -5 -11 -4 -7 2 8 14 9 64 2 155 l-5 77 48 48 c118
117 224 325 257 503 10 54 16 101 17 137 1 27 5 40 12 36 7 -5 7 -2 0 8 -6 8
-12 40 -12 72 0 74 -20 179 -43 235 -10 23 -19 46 -21 50 -9 31 -24 62 -30 62
-4 0 -8 6 -8 13 0 16 -95 118 -137 146 -43 29 -106 50 -167 57 -69 7 -78 11
-75 31 1 10 0 25 -3 33 -3 8 -10 31 -17 50 -7 19 -14 40 -15 45 -3 10 -8 24
-39 97 -20 47 -97 181 -109 189 -6 3 -9 10 -9 15 1 5 -6 17 -14 27 -8 9 -15
21 -15 25 0 4 -8 15 -17 24 -24 22 -43 46 -43 53 0 9 -44 58 -155 170 -104
106 -151 147 -211 191 -15 10 -38 29 -52 41 -13 13 -28 20 -33 17 -5 -3 -9 -1
-9 3 0 8 -107 82 -140 97 -8 3 -28 15 -45 26 -16 11 -37 23 -45 26 -8 4 -55
26 -105 49 -93 44 -287 110 -354 120 -21 3 -53 10 -71 15 -18 5 -37 8 -42 7
-16 -3 -20 19 -6 35 7 7 14 20 16 28 2 8 8 17 13 18 5 2 9 10 9 18 0 9 5 12
10 9 6 -3 10 -1 10 4 0 16 45 67 95 109 29 24 130 72 157 74 15 1 25 4 22 7
-18 19 -370 22 -479 4z"/>
</g>
</svg>
